<mxfile host="Electron" modified="2024-03-20T14:28:46.821Z" agent="Mozilla/5.0 (Windows NT 10.0; Win64; x64) AppleWebKit/537.36 (KHTML, like Gecko) draw.io/23.1.5 Chrome/120.0.6099.109 Electron/28.1.0 Safari/537.36" etag="Q3uNcMt_G_WB0_j-IeG5" version="23.1.5" type="device">
  <diagram name="第 1 页" id="bRs-Yu05ukqLQXvmFO2j">
    <mxGraphModel dx="1372" dy="1878" grid="1" gridSize="10" guides="1" tooltips="1" connect="1" arrows="1" fold="1" page="1" pageScale="1" pageWidth="827" pageHeight="1169" math="0" shadow="0">
      <root>
        <mxCell id="0" />
        <mxCell id="1" parent="0" />
        <mxCell id="XkUp8fBl9SVcWvUChdZI-115" value="" style="rounded=0;whiteSpace=wrap;html=1;" parent="1" vertex="1">
          <mxGeometry x="201" y="1060" width="160" height="80" as="geometry" />
        </mxCell>
        <mxCell id="XkUp8fBl9SVcWvUChdZI-106" value="" style="rounded=0;whiteSpace=wrap;html=1;" parent="1" vertex="1">
          <mxGeometry y="200" width="160" height="60" as="geometry" />
        </mxCell>
        <mxCell id="XkUp8fBl9SVcWvUChdZI-30" value="" style="rounded=1;whiteSpace=wrap;html=1;fillColor=#f5f5f5;strokeColor=#666666;fontColor=#333333;" parent="1" vertex="1">
          <mxGeometry y="-840" width="560" height="280" as="geometry" />
        </mxCell>
        <mxCell id="w51F5SMFu8FCbX86xvPS-1" value="" style="rounded=0;whiteSpace=wrap;html=1;" parent="1" vertex="1">
          <mxGeometry y="-460" width="160" height="340" as="geometry" />
        </mxCell>
        <mxCell id="w51F5SMFu8FCbX86xvPS-2" value="通知/新闻" style="rounded=0;whiteSpace=wrap;html=1;" parent="1" vertex="1">
          <mxGeometry y="-460" width="160" height="40" as="geometry" />
        </mxCell>
        <mxCell id="w51F5SMFu8FCbX86xvPS-3" value="首页" style="rounded=0;whiteSpace=wrap;html=1;fillColor=#ffe6cc;strokeColor=#d79b00;" parent="1" vertex="1">
          <mxGeometry y="-40" width="40" height="40" as="geometry" />
        </mxCell>
        <mxCell id="w51F5SMFu8FCbX86xvPS-4" value="球员" style="rounded=0;whiteSpace=wrap;html=1;" parent="1" vertex="1">
          <mxGeometry x="40" y="-40" width="40" height="40" as="geometry" />
        </mxCell>
        <mxCell id="w51F5SMFu8FCbX86xvPS-5" value="管理" style="rounded=0;whiteSpace=wrap;html=1;" parent="1" vertex="1">
          <mxGeometry x="80" y="-40" width="40" height="40" as="geometry" />
        </mxCell>
        <mxCell id="w51F5SMFu8FCbX86xvPS-6" value="我的" style="rounded=0;whiteSpace=wrap;html=1;" parent="1" vertex="1">
          <mxGeometry x="120" y="-40" width="40" height="40" as="geometry" />
        </mxCell>
        <mxCell id="w51F5SMFu8FCbX86xvPS-8" value="包括设置等等&lt;br&gt;&lt;br&gt;系统通知：&lt;br&gt;明天你有一场比赛&lt;br&gt;&lt;br&gt;&lt;br&gt;消息通知：&lt;br&gt;有人邀请你加入xxx球队" style="rounded=0;whiteSpace=wrap;html=1;" parent="1" vertex="1">
          <mxGeometry x="1" y="1800" width="160" height="340" as="geometry" />
        </mxCell>
        <mxCell id="w51F5SMFu8FCbX86xvPS-9" value="首页" style="rounded=0;whiteSpace=wrap;html=1;" parent="1" vertex="1">
          <mxGeometry x="1" y="2100" width="40" height="40" as="geometry" />
        </mxCell>
        <mxCell id="w51F5SMFu8FCbX86xvPS-10" value="球员" style="rounded=0;whiteSpace=wrap;html=1;" parent="1" vertex="1">
          <mxGeometry x="41" y="2100" width="40" height="40" as="geometry" />
        </mxCell>
        <mxCell id="w51F5SMFu8FCbX86xvPS-12" value="管理" style="rounded=0;whiteSpace=wrap;html=1;" parent="1" vertex="1">
          <mxGeometry x="81" y="2100" width="40" height="40" as="geometry" />
        </mxCell>
        <mxCell id="w51F5SMFu8FCbX86xvPS-23" value="已关注比赛的赛程表&lt;br&gt;（横向排列、可滑动）&lt;br&gt;&lt;div&gt;&lt;br/&gt;&lt;/div&gt;" style="rounded=0;whiteSpace=wrap;html=1;" parent="1" vertex="1">
          <mxGeometry y="-420" width="160" height="130" as="geometry" />
        </mxCell>
        <mxCell id="w51F5SMFu8FCbX86xvPS-24" value="已关注的赛事&lt;br&gt;（竖向排列）" style="rounded=0;whiteSpace=wrap;html=1;" parent="1" vertex="1">
          <mxGeometry y="-190" width="160" height="80" as="geometry" />
        </mxCell>
        <mxCell id="w51F5SMFu8FCbX86xvPS-25" value="&lt;br&gt;搜索框+赛事列表&lt;br&gt;（竖向排列）" style="rounded=0;whiteSpace=wrap;html=1;" parent="1" vertex="1">
          <mxGeometry y="-110" width="160" height="70" as="geometry" />
        </mxCell>
        <mxCell id="w51F5SMFu8FCbX86xvPS-26" value="更多" style="text;html=1;align=center;verticalAlign=middle;whiteSpace=wrap;rounded=0;fillColor=#dae8fc;strokeColor=#6c8ebf;" parent="1" vertex="1">
          <mxGeometry x="120" y="-420" width="40" height="20" as="geometry" />
        </mxCell>
        <mxCell id="w51F5SMFu8FCbX86xvPS-29" value="全部已关注的比赛&lt;br&gt;按照时间排列&lt;br&gt;（赛程表）&lt;br&gt;&lt;br&gt;&lt;div&gt;&lt;br&gt;&lt;/div&gt;" style="rounded=0;whiteSpace=wrap;html=1;" parent="1" vertex="1">
          <mxGeometry x="279" y="-460" width="161" height="90" as="geometry" />
        </mxCell>
        <mxCell id="w51F5SMFu8FCbX86xvPS-43" value="头像 + 基本信息&lt;br&gt;&lt;br&gt;&lt;div&gt;&lt;br&gt;&lt;/div&gt;&lt;div&gt;&lt;br&gt;&lt;/div&gt;" style="rounded=0;whiteSpace=wrap;html=1;" parent="1" vertex="1">
          <mxGeometry y="140" width="160" height="120" as="geometry" />
        </mxCell>
        <mxCell id="w51F5SMFu8FCbX86xvPS-44" value="编辑" style="text;html=1;align=center;verticalAlign=middle;whiteSpace=wrap;rounded=0;fillColor=#dae8fc;strokeColor=#6c8ebf;" parent="1" vertex="1">
          <mxGeometry x="120" y="140" width="40" height="20" as="geometry" />
        </mxCell>
        <mxCell id="w51F5SMFu8FCbX86xvPS-49" value="我的赛事&lt;br&gt;（纵向排列）&lt;br&gt;&lt;br&gt;&lt;div&gt;&lt;br/&gt;&lt;/div&gt;" style="rounded=0;whiteSpace=wrap;html=1;" parent="1" vertex="1">
          <mxGeometry y="650" width="160" height="120" as="geometry" />
        </mxCell>
        <mxCell id="w51F5SMFu8FCbX86xvPS-66" value="教练页面" style="rounded=1;whiteSpace=wrap;html=1;fillColor=#dae8fc;strokeColor=#6c8ebf;" parent="1" vertex="1">
          <mxGeometry x="20" y="210" width="50" height="30" as="geometry" />
        </mxCell>
        <mxCell id="w51F5SMFu8FCbX86xvPS-67" value="裁判页面" style="rounded=1;whiteSpace=wrap;html=1;fillColor=#dae8fc;strokeColor=#6c8ebf;" parent="1" vertex="1">
          <mxGeometry x="90" y="210" width="50" height="30" as="geometry" />
        </mxCell>
        <mxCell id="w51F5SMFu8FCbX86xvPS-68" value="我的" style="rounded=0;whiteSpace=wrap;html=1;fillColor=#ffe6cc;strokeColor=#d79b00;" parent="1" vertex="1">
          <mxGeometry x="121" y="2100" width="40" height="40" as="geometry" />
        </mxCell>
        <mxCell id="w51F5SMFu8FCbX86xvPS-72" value="首页" style="rounded=0;whiteSpace=wrap;html=1;" parent="1" vertex="1">
          <mxGeometry y="770" width="40" height="40" as="geometry" />
        </mxCell>
        <mxCell id="w51F5SMFu8FCbX86xvPS-73" value="球员" style="rounded=0;whiteSpace=wrap;html=1;fillColor=#ffe6cc;strokeColor=#d79b00;" parent="1" vertex="1">
          <mxGeometry x="40" y="770" width="40" height="40" as="geometry" />
        </mxCell>
        <mxCell id="w51F5SMFu8FCbX86xvPS-74" value="管理" style="rounded=0;whiteSpace=wrap;html=1;" parent="1" vertex="1">
          <mxGeometry x="80" y="770" width="40" height="40" as="geometry" />
        </mxCell>
        <mxCell id="w51F5SMFu8FCbX86xvPS-75" value="我的" style="rounded=0;whiteSpace=wrap;html=1;" parent="1" vertex="1">
          <mxGeometry x="120" y="770" width="40" height="40" as="geometry" />
        </mxCell>
        <mxCell id="w51F5SMFu8FCbX86xvPS-79" value="头像 + 基本信息" style="rounded=0;whiteSpace=wrap;html=1;" parent="1" vertex="1">
          <mxGeometry x="-240" y="140" width="160" height="60" as="geometry" />
        </mxCell>
        <mxCell id="w51F5SMFu8FCbX86xvPS-80" value="编辑" style="text;html=1;align=center;verticalAlign=middle;whiteSpace=wrap;rounded=0;fillColor=#dae8fc;strokeColor=#6c8ebf;" parent="1" vertex="1">
          <mxGeometry x="-240" y="140" width="40" height="20" as="geometry" />
        </mxCell>
        <mxCell id="w51F5SMFu8FCbX86xvPS-81" value="执教球队&lt;br&gt;（纵向排列）&lt;br&gt;&lt;br&gt;&lt;div&gt;&lt;br/&gt;&lt;/div&gt;" style="rounded=0;whiteSpace=wrap;html=1;" parent="1" vertex="1">
          <mxGeometry x="-240" y="380" width="160" height="100" as="geometry" />
        </mxCell>
        <mxCell id="w51F5SMFu8FCbX86xvPS-83" value="头像 + 基本信息" style="rounded=0;whiteSpace=wrap;html=1;" parent="1" vertex="1">
          <mxGeometry x="399" y="140" width="160" height="60" as="geometry" />
        </mxCell>
        <mxCell id="w51F5SMFu8FCbX86xvPS-84" value="编辑" style="text;html=1;align=center;verticalAlign=middle;whiteSpace=wrap;rounded=0;fillColor=#dae8fc;strokeColor=#6c8ebf;" parent="1" vertex="1">
          <mxGeometry x="520" y="140" width="40" height="20" as="geometry" />
        </mxCell>
        <mxCell id="w51F5SMFu8FCbX86xvPS-85" value="执法比赛&lt;br&gt;（横向排列、可滑动）&lt;div&gt;&lt;br/&gt;&lt;/div&gt;" style="rounded=0;whiteSpace=wrap;html=1;" parent="1" vertex="1">
          <mxGeometry x="399" y="200" width="160" height="180" as="geometry" />
        </mxCell>
        <mxCell id="w51F5SMFu8FCbX86xvPS-87" value="执法赛事&lt;br&gt;（纵向排列）&lt;br&gt;&lt;div&gt;&lt;br/&gt;&lt;/div&gt;" style="rounded=0;whiteSpace=wrap;html=1;" parent="1" vertex="1">
          <mxGeometry x="399" y="380" width="160" height="90" as="geometry" />
        </mxCell>
        <mxCell id="w51F5SMFu8FCbX86xvPS-92" value="统计？或许其他信息" style="rounded=0;whiteSpace=wrap;html=1;" parent="1" vertex="1">
          <mxGeometry x="1" y="960" width="160" height="60" as="geometry" />
        </mxCell>
        <mxCell id="w51F5SMFu8FCbX86xvPS-101" value="已关注的球员&lt;br&gt;（横向排列、可滑动）&lt;br&gt;&lt;br&gt;&lt;br&gt;&lt;div&gt;&lt;br/&gt;&lt;/div&gt;" style="rounded=0;whiteSpace=wrap;html=1;" parent="1" vertex="1">
          <mxGeometry y="-290" width="160" height="100" as="geometry" />
        </mxCell>
        <mxCell id="XkUp8fBl9SVcWvUChdZI-1" value="A01 首页&lt;br&gt;home" style="shape=process;whiteSpace=wrap;html=1;backgroundOutline=1;fillColor=#f8cecc;strokeColor=#b85450;" parent="1" vertex="1">
          <mxGeometry y="-520" width="160" height="60" as="geometry" />
        </mxCell>
        <mxCell id="XkUp8fBl9SVcWvUChdZI-2" value="Pub05&lt;div&gt;matches&lt;/div&gt;" style="shape=process;whiteSpace=wrap;html=1;backgroundOutline=1;fillColor=#fff2cc;strokeColor=#d6b656;" parent="1" vertex="1">
          <mxGeometry x="279" y="-520" width="161" height="60" as="geometry" />
        </mxCell>
        <mxCell id="XkUp8fBl9SVcWvUChdZI-3" value="Pub02&lt;br&gt;player" style="shape=process;whiteSpace=wrap;html=1;backgroundOutline=1;fillColor=#fff2cc;strokeColor=#d6b656;" parent="1" vertex="1">
          <mxGeometry x="279" y="-239.5" width="161" height="60" as="geometry" />
        </mxCell>
        <mxCell id="XkUp8fBl9SVcWvUChdZI-6" value="&lt;h1&gt;总述：&lt;/h1&gt;&lt;p&gt;A类：首页及其页面树&lt;/p&gt;&lt;p&gt;B类：球员及其页面树&lt;/p&gt;&lt;p&gt;C类：管理及其页面树&lt;/p&gt;&lt;p&gt;D类：我的及其页面树&lt;/p&gt;&lt;p&gt;Pub类：公共页面&lt;/p&gt;&lt;p&gt;&lt;br&gt;&lt;/p&gt;&lt;p&gt;&amp;nbsp; &amp;nbsp; &amp;nbsp; &amp;nbsp; &amp;nbsp; &amp;nbsp; &amp;nbsp; &amp;nbsp; &amp;nbsp; &amp;nbsp; &amp;nbsp; &amp;nbsp;&lt;/p&gt;" style="text;html=1;spacing=5;spacingTop=-20;whiteSpace=wrap;overflow=hidden;rounded=0;" parent="1" vertex="1">
          <mxGeometry x="34" y="-830" width="190" height="180" as="geometry" />
        </mxCell>
        <mxCell id="XkUp8fBl9SVcWvUChdZI-8" value="" style="endArrow=classic;html=1;rounded=0;entryX=0;entryY=0.5;entryDx=0;entryDy=0;" parent="1" source="w51F5SMFu8FCbX86xvPS-26" target="XkUp8fBl9SVcWvUChdZI-2" edge="1">
          <mxGeometry width="50" height="50" relative="1" as="geometry">
            <mxPoint x="220" y="-420" as="sourcePoint" />
            <mxPoint x="270" y="-470" as="targetPoint" />
          </mxGeometry>
        </mxCell>
        <mxCell id="XkUp8fBl9SVcWvUChdZI-10" value="蓝色按钮" style="rounded=0;whiteSpace=wrap;html=1;fillColor=#dae8fc;strokeColor=#6c8ebf;" parent="1" vertex="1">
          <mxGeometry x="40" y="-640" width="70" height="40" as="geometry" />
        </mxCell>
        <mxCell id="XkUp8fBl9SVcWvUChdZI-11" value="" style="endArrow=classic;html=1;rounded=0;entryX=0;entryY=0.5;entryDx=0;entryDy=0;" parent="1" source="XkUp8fBl9SVcWvUChdZI-34" target="XkUp8fBl9SVcWvUChdZI-3" edge="1">
          <mxGeometry width="50" height="50" relative="1" as="geometry">
            <mxPoint x="148.5000000000091" y="-219.5" as="sourcePoint" />
            <mxPoint x="240" y="-250" as="targetPoint" />
          </mxGeometry>
        </mxCell>
        <mxCell id="XkUp8fBl9SVcWvUChdZI-12" value="字母+数字&lt;br&gt;name" style="shape=process;whiteSpace=wrap;html=1;backgroundOutline=1;fillColor=#f8cecc;strokeColor=#b85450;" parent="1" vertex="1">
          <mxGeometry x="238" y="-640" width="82" height="40" as="geometry" />
        </mxCell>
        <mxCell id="XkUp8fBl9SVcWvUChdZI-13" value="表示跳转按钮" style="text;html=1;align=center;verticalAlign=middle;whiteSpace=wrap;rounded=0;" parent="1" vertex="1">
          <mxGeometry x="110" y="-640" width="100" height="40" as="geometry" />
        </mxCell>
        <mxCell id="XkUp8fBl9SVcWvUChdZI-14" value="表示页面编号及（项目中的）名称" style="text;html=1;align=center;verticalAlign=middle;whiteSpace=wrap;rounded=0;" parent="1" vertex="1">
          <mxGeometry x="320" y="-640" width="200" height="40" as="geometry" />
        </mxCell>
        <mxCell id="XkUp8fBl9SVcWvUChdZI-16" value="B01 (我的)球员主页&lt;br&gt;profile_player" style="shape=process;whiteSpace=wrap;html=1;backgroundOutline=1;fillColor=#f8cecc;strokeColor=#b85450;" parent="1" vertex="1">
          <mxGeometry y="80" width="160" height="60" as="geometry" />
        </mxCell>
        <mxCell id="XkUp8fBl9SVcWvUChdZI-17" value="B02 球员信息编辑页面&lt;br&gt;profile_player_edit" style="shape=process;whiteSpace=wrap;html=1;backgroundOutline=1;fillColor=#f8cecc;strokeColor=#b85450;" parent="1" vertex="1">
          <mxGeometry x="199" y="80" width="160" height="60" as="geometry" />
        </mxCell>
        <mxCell id="XkUp8fBl9SVcWvUChdZI-18" value="B03 教练页面&lt;br&gt;profile_coach" style="shape=process;whiteSpace=wrap;html=1;backgroundOutline=1;fillColor=#f8cecc;strokeColor=#b85450;" parent="1" vertex="1">
          <mxGeometry x="-240" y="80" width="160" height="60" as="geometry" />
        </mxCell>
        <mxCell id="XkUp8fBl9SVcWvUChdZI-20" value="" style="endArrow=classic;html=1;rounded=0;entryX=1.011;entryY=0.585;entryDx=0;entryDy=0;entryPerimeter=0;" parent="1" source="w51F5SMFu8FCbX86xvPS-66" target="XkUp8fBl9SVcWvUChdZI-18" edge="1">
          <mxGeometry width="50" height="50" relative="1" as="geometry">
            <mxPoint x="-60" y="135" as="sourcePoint" />
            <mxPoint x="-10" y="85" as="targetPoint" />
          </mxGeometry>
        </mxCell>
        <mxCell id="XkUp8fBl9SVcWvUChdZI-21" value="B03 教练页面编辑&lt;br&gt;profile_coach_edit" style="shape=process;whiteSpace=wrap;html=1;backgroundOutline=1;fillColor=#f8cecc;strokeColor=#b85450;" parent="1" vertex="1">
          <mxGeometry x="-440" y="80" width="160" height="60" as="geometry" />
        </mxCell>
        <mxCell id="XkUp8fBl9SVcWvUChdZI-22" value="" style="endArrow=classic;html=1;rounded=0;entryX=1;entryY=0.5;entryDx=0;entryDy=0;" parent="1" source="w51F5SMFu8FCbX86xvPS-80" target="XkUp8fBl9SVcWvUChdZI-21" edge="1">
          <mxGeometry width="50" height="50" relative="1" as="geometry">
            <mxPoint x="-330" y="240" as="sourcePoint" />
            <mxPoint x="-280" y="190" as="targetPoint" />
          </mxGeometry>
        </mxCell>
        <mxCell id="XkUp8fBl9SVcWvUChdZI-23" value="" style="endArrow=classic;html=1;rounded=0;entryX=0;entryY=0.5;entryDx=0;entryDy=0;" parent="1" source="w51F5SMFu8FCbX86xvPS-44" target="XkUp8fBl9SVcWvUChdZI-17" edge="1">
          <mxGeometry width="50" height="50" relative="1" as="geometry">
            <mxPoint x="140" y="210" as="sourcePoint" />
            <mxPoint x="190" y="160" as="targetPoint" />
          </mxGeometry>
        </mxCell>
        <mxCell id="XkUp8fBl9SVcWvUChdZI-24" value="B05 裁判页面&lt;br&gt;profile_referee" style="shape=process;whiteSpace=wrap;html=1;backgroundOutline=1;fillColor=#f8cecc;strokeColor=#b85450;" parent="1" vertex="1">
          <mxGeometry x="399" y="80" width="160" height="60" as="geometry" />
        </mxCell>
        <mxCell id="XkUp8fBl9SVcWvUChdZI-25" value="" style="endArrow=classic;html=1;rounded=0;entryX=0;entryY=0.5;entryDx=0;entryDy=0;" parent="1" source="w51F5SMFu8FCbX86xvPS-67" target="XkUp8fBl9SVcWvUChdZI-24" edge="1">
          <mxGeometry width="50" height="50" relative="1" as="geometry">
            <mxPoint x="240" y="220" as="sourcePoint" />
            <mxPoint x="290" y="170" as="targetPoint" />
          </mxGeometry>
        </mxCell>
        <mxCell id="XkUp8fBl9SVcWvUChdZI-26" value="B06 裁判页面编辑&lt;br&gt;profile_referee_edit" style="shape=process;whiteSpace=wrap;html=1;backgroundOutline=1;fillColor=#f8cecc;strokeColor=#b85450;" parent="1" vertex="1">
          <mxGeometry x="600" y="80" width="160" height="60" as="geometry" />
        </mxCell>
        <mxCell id="XkUp8fBl9SVcWvUChdZI-27" value="" style="endArrow=classic;html=1;rounded=0;entryX=0;entryY=0.5;entryDx=0;entryDy=0;" parent="1" source="w51F5SMFu8FCbX86xvPS-84" target="XkUp8fBl9SVcWvUChdZI-26" edge="1">
          <mxGeometry width="50" height="50" relative="1" as="geometry">
            <mxPoint x="670" y="200" as="sourcePoint" />
            <mxPoint x="720" y="150" as="targetPoint" />
          </mxGeometry>
        </mxCell>
        <mxCell id="XkUp8fBl9SVcWvUChdZI-28" value="我的赛程&lt;br&gt;（横向排列、可滑动）&lt;br&gt;&lt;div&gt;&lt;br/&gt;&lt;/div&gt;" style="rounded=0;whiteSpace=wrap;html=1;" parent="1" vertex="1">
          <mxGeometry x="-240" y="200" width="160" height="180" as="geometry" />
        </mxCell>
        <mxCell id="XkUp8fBl9SVcWvUChdZI-80" style="edgeStyle=orthogonalEdgeStyle;rounded=0;orthogonalLoop=1;jettySize=auto;html=1;" parent="1" source="XkUp8fBl9SVcWvUChdZI-29" target="XkUp8fBl9SVcWvUChdZI-79" edge="1">
          <mxGeometry relative="1" as="geometry" />
        </mxCell>
        <mxCell id="XkUp8fBl9SVcWvUChdZI-29" value="更多" style="text;html=1;align=center;verticalAlign=middle;whiteSpace=wrap;rounded=0;fillColor=#dae8fc;strokeColor=#6c8ebf;" parent="1" vertex="1">
          <mxGeometry x="-240" y="200" width="40" height="20" as="geometry" />
        </mxCell>
        <mxCell id="XkUp8fBl9SVcWvUChdZI-36" style="edgeStyle=orthogonalEdgeStyle;rounded=0;orthogonalLoop=1;jettySize=auto;html=1;" parent="1" source="XkUp8fBl9SVcWvUChdZI-32" target="XkUp8fBl9SVcWvUChdZI-35" edge="1">
          <mxGeometry relative="1" as="geometry" />
        </mxCell>
        <mxCell id="XkUp8fBl9SVcWvUChdZI-32" value="match_card_small" style="rounded=1;whiteSpace=wrap;html=1;fillColor=#dae8fc;strokeColor=#6c8ebf;" parent="1" vertex="1">
          <mxGeometry x="24" y="-330" width="120" height="40" as="geometry" />
        </mxCell>
        <mxCell id="XkUp8fBl9SVcWvUChdZI-37" style="edgeStyle=orthogonalEdgeStyle;rounded=0;orthogonalLoop=1;jettySize=auto;html=1;" parent="1" source="XkUp8fBl9SVcWvUChdZI-33" target="XkUp8fBl9SVcWvUChdZI-35" edge="1">
          <mxGeometry relative="1" as="geometry">
            <Array as="points">
              <mxPoint x="360" y="-320" />
            </Array>
          </mxGeometry>
        </mxCell>
        <mxCell id="XkUp8fBl9SVcWvUChdZI-33" value="match_card_big" style="rounded=1;whiteSpace=wrap;html=1;fillColor=#dae8fc;strokeColor=#6c8ebf;" parent="1" vertex="1">
          <mxGeometry x="299.5" y="-400" width="120" height="30" as="geometry" />
        </mxCell>
        <mxCell id="XkUp8fBl9SVcWvUChdZI-34" value="player_card_small" style="rounded=1;whiteSpace=wrap;html=1;fillColor=#dae8fc;strokeColor=#6c8ebf;" parent="1" vertex="1">
          <mxGeometry x="24" y="-229.5" width="120" height="40" as="geometry" />
        </mxCell>
        <mxCell id="XkUp8fBl9SVcWvUChdZI-35" value="Pub01&lt;br&gt;match" style="shape=process;whiteSpace=wrap;html=1;backgroundOutline=1;fillColor=#fff2cc;strokeColor=#d6b656;" parent="1" vertex="1">
          <mxGeometry x="279" y="-340" width="161" height="60" as="geometry" />
        </mxCell>
        <mxCell id="XkUp8fBl9SVcWvUChdZI-40" style="edgeStyle=orthogonalEdgeStyle;rounded=0;orthogonalLoop=1;jettySize=auto;html=1;" parent="1" source="XkUp8fBl9SVcWvUChdZI-38" target="XkUp8fBl9SVcWvUChdZI-39" edge="1">
          <mxGeometry relative="1" as="geometry" />
        </mxCell>
        <mxCell id="XkUp8fBl9SVcWvUChdZI-38" value="event_card_big" style="rounded=1;whiteSpace=wrap;html=1;fillColor=#dae8fc;strokeColor=#6c8ebf;" parent="1" vertex="1">
          <mxGeometry x="24" y="-130" width="120" height="40" as="geometry" />
        </mxCell>
        <mxCell id="XkUp8fBl9SVcWvUChdZI-39" value="Pub03&lt;br&gt;event" style="shape=process;whiteSpace=wrap;html=1;backgroundOutline=1;fillColor=#fff2cc;strokeColor=#d6b656;" parent="1" vertex="1">
          <mxGeometry x="279" y="-140" width="161" height="60" as="geometry" />
        </mxCell>
        <mxCell id="XkUp8fBl9SVcWvUChdZI-87" style="edgeStyle=orthogonalEdgeStyle;rounded=0;orthogonalLoop=1;jettySize=auto;html=1;" parent="1" source="XkUp8fBl9SVcWvUChdZI-41" target="XkUp8fBl9SVcWvUChdZI-86" edge="1">
          <mxGeometry relative="1" as="geometry" />
        </mxCell>
        <mxCell id="XkUp8fBl9SVcWvUChdZI-41" value="team_card_big" style="rounded=1;whiteSpace=wrap;html=1;fillColor=#dae8fc;strokeColor=#6c8ebf;" parent="1" vertex="1">
          <mxGeometry x="-220" y="440" width="120" height="30" as="geometry" />
        </mxCell>
        <mxCell id="XkUp8fBl9SVcWvUChdZI-85" style="edgeStyle=orthogonalEdgeStyle;rounded=0;orthogonalLoop=1;jettySize=auto;html=1;" parent="1" source="XkUp8fBl9SVcWvUChdZI-43" target="XkUp8fBl9SVcWvUChdZI-83" edge="1">
          <mxGeometry relative="1" as="geometry" />
        </mxCell>
        <mxCell id="XkUp8fBl9SVcWvUChdZI-43" value="match_card_small" style="rounded=1;whiteSpace=wrap;html=1;fillColor=#dae8fc;strokeColor=#6c8ebf;" parent="1" vertex="1">
          <mxGeometry x="-220" y="335" width="120" height="30" as="geometry" />
        </mxCell>
        <mxCell id="XkUp8fBl9SVcWvUChdZI-44" value="Pub01 比赛详情页&lt;br&gt;match" style="shape=process;whiteSpace=wrap;html=1;backgroundOutline=1;fillColor=#fff2cc;strokeColor=#d6b656;" parent="1" vertex="1">
          <mxGeometry x="639" y="-840" width="161" height="60" as="geometry" />
        </mxCell>
        <mxCell id="XkUp8fBl9SVcWvUChdZI-45" value="Pub02 球员详情页&lt;br&gt;player" style="shape=process;whiteSpace=wrap;html=1;backgroundOutline=1;fillColor=#fff2cc;strokeColor=#d6b656;" parent="1" vertex="1">
          <mxGeometry x="639" y="-780" width="161" height="60" as="geometry" />
        </mxCell>
        <mxCell id="XkUp8fBl9SVcWvUChdZI-46" value="Pub03 赛事详情页&lt;br&gt;event" style="shape=process;whiteSpace=wrap;html=1;backgroundOutline=1;fillColor=#fff2cc;strokeColor=#d6b656;" parent="1" vertex="1">
          <mxGeometry x="639" y="-720" width="161" height="60" as="geometry" />
        </mxCell>
        <mxCell id="XkUp8fBl9SVcWvUChdZI-47" value="Pub05 比赛列表页&lt;div&gt;matches&lt;/div&gt;" style="shape=process;whiteSpace=wrap;html=1;backgroundOutline=1;fillColor=#fff2cc;strokeColor=#d6b656;" parent="1" vertex="1">
          <mxGeometry x="639" y="-600" width="161" height="60" as="geometry" />
        </mxCell>
        <mxCell id="XkUp8fBl9SVcWvUChdZI-48" value="Pub04 球队详情页&lt;br&gt;&lt;span style=&quot;background-color: initial;&quot;&gt;team&lt;/span&gt;" style="shape=process;whiteSpace=wrap;html=1;backgroundOutline=1;fillColor=#fff2cc;strokeColor=#d6b656;" parent="1" vertex="1">
          <mxGeometry x="639" y="-660" width="161" height="60" as="geometry" />
        </mxCell>
        <mxCell id="XkUp8fBl9SVcWvUChdZI-49" value="Pub06 球员列表页&lt;div&gt;players&lt;/div&gt;" style="shape=process;whiteSpace=wrap;html=1;backgroundOutline=1;fillColor=#fff2cc;strokeColor=#d6b656;" parent="1" vertex="1">
          <mxGeometry x="639" y="-540" width="161" height="60" as="geometry" />
        </mxCell>
        <mxCell id="XkUp8fBl9SVcWvUChdZI-50" value="Pub07 赛事列表页&lt;div&gt;events&lt;/div&gt;" style="shape=process;whiteSpace=wrap;html=1;backgroundOutline=1;fillColor=#fff2cc;strokeColor=#d6b656;" parent="1" vertex="1">
          <mxGeometry x="639" y="-480" width="161" height="60" as="geometry" />
        </mxCell>
        <mxCell id="XkUp8fBl9SVcWvUChdZI-51" value="Pub08 球队列表&lt;span style=&quot;background-color: initial;&quot;&gt;页&lt;/span&gt;&lt;br&gt;&lt;div&gt;teams&lt;/div&gt;" style="shape=process;whiteSpace=wrap;html=1;backgroundOutline=1;fillColor=#fff2cc;strokeColor=#d6b656;" parent="1" vertex="1">
          <mxGeometry x="639" y="-420" width="161" height="60" as="geometry" />
        </mxCell>
        <mxCell id="w51F5SMFu8FCbX86xvPS-47" value="我的赛程&lt;br&gt;（横向排列、可滑动）" style="rounded=0;whiteSpace=wrap;html=1;" parent="1" vertex="1">
          <mxGeometry y="480" width="160" height="170" as="geometry" />
        </mxCell>
        <mxCell id="XkUp8fBl9SVcWvUChdZI-69" style="edgeStyle=orthogonalEdgeStyle;rounded=0;orthogonalLoop=1;jettySize=auto;html=1;" parent="1" source="w51F5SMFu8FCbX86xvPS-50" target="XkUp8fBl9SVcWvUChdZI-68" edge="1">
          <mxGeometry relative="1" as="geometry" />
        </mxCell>
        <mxCell id="w51F5SMFu8FCbX86xvPS-50" value="更多" style="text;html=1;align=center;verticalAlign=middle;whiteSpace=wrap;rounded=0;fillColor=#dae8fc;strokeColor=#6c8ebf;" parent="1" vertex="1">
          <mxGeometry x="120" y="480" width="40" height="20" as="geometry" />
        </mxCell>
        <mxCell id="XkUp8fBl9SVcWvUChdZI-59" value="Pub08&lt;br&gt;teams" style="shape=process;whiteSpace=wrap;html=1;backgroundOutline=1;fillColor=#fff2cc;strokeColor=#d6b656;" parent="1" vertex="1">
          <mxGeometry x="200" y="240" width="160" height="60" as="geometry" />
        </mxCell>
        <mxCell id="XkUp8fBl9SVcWvUChdZI-60" value="" style="endArrow=classic;html=1;rounded=0;" parent="1" source="w51F5SMFu8FCbX86xvPS-48" target="XkUp8fBl9SVcWvUChdZI-59" edge="1">
          <mxGeometry width="50" height="50" relative="1" as="geometry">
            <mxPoint x="240" y="400" as="sourcePoint" />
            <mxPoint x="290" y="350" as="targetPoint" />
          </mxGeometry>
        </mxCell>
        <mxCell id="XkUp8fBl9SVcWvUChdZI-61" value="" style="rounded=0;whiteSpace=wrap;html=1;" parent="1" vertex="1">
          <mxGeometry x="200" y="300" width="160" height="60" as="geometry" />
        </mxCell>
        <mxCell id="XkUp8fBl9SVcWvUChdZI-66" style="edgeStyle=orthogonalEdgeStyle;rounded=0;orthogonalLoop=1;jettySize=auto;html=1;" parent="1" source="XkUp8fBl9SVcWvUChdZI-62" target="XkUp8fBl9SVcWvUChdZI-63" edge="1">
          <mxGeometry relative="1" as="geometry" />
        </mxCell>
        <mxCell id="XkUp8fBl9SVcWvUChdZI-62" value="team_card_big" style="rounded=1;whiteSpace=wrap;html=1;fillColor=#dae8fc;strokeColor=#6c8ebf;" parent="1" vertex="1">
          <mxGeometry x="219" y="317.5" width="120" height="25" as="geometry" />
        </mxCell>
        <mxCell id="w51F5SMFu8FCbX86xvPS-51" value="我的球队&lt;br&gt;（横向排列、可滑动）&lt;br&gt;&lt;br&gt;&lt;div&gt;&lt;br/&gt;&lt;/div&gt;" style="rounded=0;whiteSpace=wrap;html=1;" parent="1" vertex="1">
          <mxGeometry y="260" width="160" height="220" as="geometry" />
        </mxCell>
        <mxCell id="w51F5SMFu8FCbX86xvPS-48" value="更多" style="text;html=1;align=center;verticalAlign=middle;whiteSpace=wrap;rounded=0;fillColor=#dae8fc;strokeColor=#6c8ebf;" parent="1" vertex="1">
          <mxGeometry x="120" y="260" width="40" height="20" as="geometry" />
        </mxCell>
        <mxCell id="XkUp8fBl9SVcWvUChdZI-57" value="team_card_small" style="rounded=1;whiteSpace=wrap;html=1;fillColor=#dae8fc;strokeColor=#6c8ebf;" parent="1" vertex="1">
          <mxGeometry x="20" y="407.5" width="120" height="25" as="geometry" />
        </mxCell>
        <mxCell id="XkUp8fBl9SVcWvUChdZI-63" value="Pub04&lt;br&gt;team" style="shape=process;whiteSpace=wrap;html=1;backgroundOutline=1;fillColor=#fff2cc;strokeColor=#d6b656;" parent="1" vertex="1">
          <mxGeometry x="200" y="390" width="160" height="60" as="geometry" />
        </mxCell>
        <mxCell id="XkUp8fBl9SVcWvUChdZI-64" value="" style="endArrow=classic;html=1;rounded=0;exitX=1;exitY=0.5;exitDx=0;exitDy=0;entryX=0;entryY=0.5;entryDx=0;entryDy=0;" parent="1" source="XkUp8fBl9SVcWvUChdZI-57" target="XkUp8fBl9SVcWvUChdZI-63" edge="1">
          <mxGeometry width="50" height="50" relative="1" as="geometry">
            <mxPoint x="230" y="560" as="sourcePoint" />
            <mxPoint x="280" y="510" as="targetPoint" />
          </mxGeometry>
        </mxCell>
        <mxCell id="XkUp8fBl9SVcWvUChdZI-74" style="edgeStyle=orthogonalEdgeStyle;rounded=0;orthogonalLoop=1;jettySize=auto;html=1;" parent="1" source="XkUp8fBl9SVcWvUChdZI-67" target="XkUp8fBl9SVcWvUChdZI-72" edge="1">
          <mxGeometry relative="1" as="geometry" />
        </mxCell>
        <mxCell id="XkUp8fBl9SVcWvUChdZI-67" value="match_card_small" style="rounded=1;whiteSpace=wrap;html=1;fillColor=#dae8fc;strokeColor=#6c8ebf;" parent="1" vertex="1">
          <mxGeometry x="24" y="617.5" width="120" height="25" as="geometry" />
        </mxCell>
        <mxCell id="XkUp8fBl9SVcWvUChdZI-68" value="Pub05&lt;br&gt;matches" style="shape=process;whiteSpace=wrap;html=1;backgroundOutline=1;fillColor=#fff2cc;strokeColor=#d6b656;" parent="1" vertex="1">
          <mxGeometry x="200" y="460" width="160" height="60" as="geometry" />
        </mxCell>
        <mxCell id="XkUp8fBl9SVcWvUChdZI-70" value="" style="rounded=0;whiteSpace=wrap;html=1;" parent="1" vertex="1">
          <mxGeometry x="200" y="520" width="160" height="60" as="geometry" />
        </mxCell>
        <mxCell id="XkUp8fBl9SVcWvUChdZI-73" style="edgeStyle=orthogonalEdgeStyle;rounded=0;orthogonalLoop=1;jettySize=auto;html=1;" parent="1" source="XkUp8fBl9SVcWvUChdZI-71" target="XkUp8fBl9SVcWvUChdZI-72" edge="1">
          <mxGeometry relative="1" as="geometry" />
        </mxCell>
        <mxCell id="XkUp8fBl9SVcWvUChdZI-71" value="match_card_big" style="rounded=1;whiteSpace=wrap;html=1;fillColor=#dae8fc;strokeColor=#6c8ebf;" parent="1" vertex="1">
          <mxGeometry x="220" y="537.5" width="120" height="25" as="geometry" />
        </mxCell>
        <mxCell id="XkUp8fBl9SVcWvUChdZI-72" value="Pub01&lt;br&gt;match" style="shape=process;whiteSpace=wrap;html=1;backgroundOutline=1;fillColor=#fff2cc;strokeColor=#d6b656;" parent="1" vertex="1">
          <mxGeometry x="200" y="600" width="160" height="60" as="geometry" />
        </mxCell>
        <mxCell id="XkUp8fBl9SVcWvUChdZI-78" style="edgeStyle=orthogonalEdgeStyle;rounded=0;orthogonalLoop=1;jettySize=auto;html=1;" parent="1" source="XkUp8fBl9SVcWvUChdZI-75" target="XkUp8fBl9SVcWvUChdZI-77" edge="1">
          <mxGeometry relative="1" as="geometry" />
        </mxCell>
        <mxCell id="XkUp8fBl9SVcWvUChdZI-75" value="event_card_big" style="rounded=1;whiteSpace=wrap;html=1;fillColor=#dae8fc;strokeColor=#6c8ebf;" parent="1" vertex="1">
          <mxGeometry x="24" y="730" width="120" height="25" as="geometry" />
        </mxCell>
        <mxCell id="XkUp8fBl9SVcWvUChdZI-77" value="Pub03&lt;br&gt;event" style="shape=process;whiteSpace=wrap;html=1;backgroundOutline=1;fillColor=#fff2cc;strokeColor=#d6b656;" parent="1" vertex="1">
          <mxGeometry x="199" y="712.5" width="160" height="60" as="geometry" />
        </mxCell>
        <mxCell id="XkUp8fBl9SVcWvUChdZI-79" value="Pub05&lt;br&gt;matches" style="shape=process;whiteSpace=wrap;html=1;backgroundOutline=1;fillColor=#fff2cc;strokeColor=#d6b656;" parent="1" vertex="1">
          <mxGeometry x="-440" y="180" width="160" height="60" as="geometry" />
        </mxCell>
        <mxCell id="XkUp8fBl9SVcWvUChdZI-81" value="" style="rounded=0;whiteSpace=wrap;html=1;" parent="1" vertex="1">
          <mxGeometry x="-440" y="240" width="160" height="60" as="geometry" />
        </mxCell>
        <mxCell id="XkUp8fBl9SVcWvUChdZI-84" style="edgeStyle=orthogonalEdgeStyle;rounded=0;orthogonalLoop=1;jettySize=auto;html=1;" parent="1" source="XkUp8fBl9SVcWvUChdZI-82" target="XkUp8fBl9SVcWvUChdZI-83" edge="1">
          <mxGeometry relative="1" as="geometry" />
        </mxCell>
        <mxCell id="XkUp8fBl9SVcWvUChdZI-82" value="match_card_big" style="rounded=1;whiteSpace=wrap;html=1;fillColor=#dae8fc;strokeColor=#6c8ebf;" parent="1" vertex="1">
          <mxGeometry x="-420" y="260" width="120" height="30" as="geometry" />
        </mxCell>
        <mxCell id="XkUp8fBl9SVcWvUChdZI-83" value="Pub01&lt;br&gt;match" style="shape=process;whiteSpace=wrap;html=1;backgroundOutline=1;fillColor=#fff2cc;strokeColor=#d6b656;" parent="1" vertex="1">
          <mxGeometry x="-440" y="320" width="160" height="60" as="geometry" />
        </mxCell>
        <mxCell id="XkUp8fBl9SVcWvUChdZI-86" value="Pub04&lt;br&gt;team" style="shape=process;whiteSpace=wrap;html=1;backgroundOutline=1;fillColor=#fff2cc;strokeColor=#d6b656;" parent="1" vertex="1">
          <mxGeometry x="-440" y="425" width="160" height="60" as="geometry" />
        </mxCell>
        <mxCell id="XkUp8fBl9SVcWvUChdZI-108" style="edgeStyle=orthogonalEdgeStyle;rounded=0;orthogonalLoop=1;jettySize=auto;html=1;" parent="1" source="XkUp8fBl9SVcWvUChdZI-88" target="XkUp8fBl9SVcWvUChdZI-107" edge="1">
          <mxGeometry relative="1" as="geometry" />
        </mxCell>
        <mxCell id="XkUp8fBl9SVcWvUChdZI-88" value="event_card_big" style="rounded=1;whiteSpace=wrap;html=1;fillColor=#dae8fc;strokeColor=#6c8ebf;" parent="1" vertex="1">
          <mxGeometry x="420" y="440" width="120" height="25" as="geometry" />
        </mxCell>
        <mxCell id="XkUp8fBl9SVcWvUChdZI-105" style="edgeStyle=orthogonalEdgeStyle;rounded=0;orthogonalLoop=1;jettySize=auto;html=1;" parent="1" source="XkUp8fBl9SVcWvUChdZI-89" target="XkUp8fBl9SVcWvUChdZI-104" edge="1">
          <mxGeometry relative="1" as="geometry" />
        </mxCell>
        <mxCell id="XkUp8fBl9SVcWvUChdZI-89" value="match_card_small" style="rounded=1;whiteSpace=wrap;html=1;fillColor=#dae8fc;strokeColor=#6c8ebf;" parent="1" vertex="1">
          <mxGeometry x="420" y="337.5" width="120" height="25" as="geometry" />
        </mxCell>
        <mxCell id="XkUp8fBl9SVcWvUChdZI-94" style="edgeStyle=orthogonalEdgeStyle;rounded=0;orthogonalLoop=1;jettySize=auto;html=1;" parent="1" source="XkUp8fBl9SVcWvUChdZI-90" target="XkUp8fBl9SVcWvUChdZI-100" edge="1">
          <mxGeometry relative="1" as="geometry">
            <mxPoint x="600" y="210" as="targetPoint" />
          </mxGeometry>
        </mxCell>
        <mxCell id="XkUp8fBl9SVcWvUChdZI-90" value="更多" style="text;html=1;align=center;verticalAlign=middle;whiteSpace=wrap;rounded=0;fillColor=#dae8fc;strokeColor=#6c8ebf;" parent="1" vertex="1">
          <mxGeometry x="519" y="200" width="40" height="20" as="geometry" />
        </mxCell>
        <mxCell id="XkUp8fBl9SVcWvUChdZI-100" value="Pub05&lt;br&gt;matches" style="shape=process;whiteSpace=wrap;html=1;backgroundOutline=1;fillColor=#fff2cc;strokeColor=#d6b656;" parent="1" vertex="1">
          <mxGeometry x="600" y="180" width="160" height="60" as="geometry" />
        </mxCell>
        <mxCell id="XkUp8fBl9SVcWvUChdZI-101" value="" style="rounded=0;whiteSpace=wrap;html=1;" parent="1" vertex="1">
          <mxGeometry x="600" y="240" width="160" height="60" as="geometry" />
        </mxCell>
        <mxCell id="XkUp8fBl9SVcWvUChdZI-102" style="edgeStyle=orthogonalEdgeStyle;rounded=0;orthogonalLoop=1;jettySize=auto;html=1;" parent="1" source="XkUp8fBl9SVcWvUChdZI-103" target="XkUp8fBl9SVcWvUChdZI-104" edge="1">
          <mxGeometry relative="1" as="geometry" />
        </mxCell>
        <mxCell id="XkUp8fBl9SVcWvUChdZI-103" value="match_card_big" style="rounded=1;whiteSpace=wrap;html=1;fillColor=#dae8fc;strokeColor=#6c8ebf;" parent="1" vertex="1">
          <mxGeometry x="620" y="257.5" width="120" height="25" as="geometry" />
        </mxCell>
        <mxCell id="XkUp8fBl9SVcWvUChdZI-104" value="Pub01&lt;br&gt;match" style="shape=process;whiteSpace=wrap;html=1;backgroundOutline=1;fillColor=#fff2cc;strokeColor=#d6b656;" parent="1" vertex="1">
          <mxGeometry x="600" y="320" width="160" height="60" as="geometry" />
        </mxCell>
        <mxCell id="XkUp8fBl9SVcWvUChdZI-107" value="Pub03&lt;br&gt;event" style="shape=process;whiteSpace=wrap;html=1;backgroundOutline=1;fillColor=#fff2cc;strokeColor=#d6b656;" parent="1" vertex="1">
          <mxGeometry x="600" y="422.5" width="160" height="60" as="geometry" />
        </mxCell>
        <mxCell id="XkUp8fBl9SVcWvUChdZI-109" value="C01 管理主页&lt;br&gt;management" style="shape=process;whiteSpace=wrap;html=1;backgroundOutline=1;fillColor=#f8cecc;strokeColor=#b85450;" parent="1" vertex="1">
          <mxGeometry x="1" y="900" width="160" height="60" as="geometry" />
        </mxCell>
        <mxCell id="XkUp8fBl9SVcWvUChdZI-113" value="C08&lt;br&gt;teams" style="shape=process;whiteSpace=wrap;html=1;backgroundOutline=1;fillColor=#f8cecc;strokeColor=#b85450;" parent="1" vertex="1">
          <mxGeometry x="201" y="1000" width="160" height="60" as="geometry" />
        </mxCell>
        <mxCell id="XkUp8fBl9SVcWvUChdZI-114" value="" style="endArrow=classic;html=1;rounded=0;" parent="1" source="XkUp8fBl9SVcWvUChdZI-119" target="XkUp8fBl9SVcWvUChdZI-113" edge="1">
          <mxGeometry width="50" height="50" relative="1" as="geometry">
            <mxPoint x="241" y="1160" as="sourcePoint" />
            <mxPoint x="291" y="1110" as="targetPoint" />
          </mxGeometry>
        </mxCell>
        <mxCell id="XkUp8fBl9SVcWvUChdZI-116" style="edgeStyle=orthogonalEdgeStyle;rounded=0;orthogonalLoop=1;jettySize=auto;html=1;" parent="1" source="XkUp8fBl9SVcWvUChdZI-117" target="XkUp8fBl9SVcWvUChdZI-121" edge="1">
          <mxGeometry relative="1" as="geometry" />
        </mxCell>
        <mxCell id="XkUp8fBl9SVcWvUChdZI-117" value="team_card_big" style="rounded=1;whiteSpace=wrap;html=1;fillColor=#dae8fc;strokeColor=#6c8ebf;" parent="1" vertex="1">
          <mxGeometry x="220" y="1105" width="120" height="25" as="geometry" />
        </mxCell>
        <mxCell id="XkUp8fBl9SVcWvUChdZI-118" value="管理的球队&lt;br style=&quot;border-color: var(--border-color);&quot;&gt;（横向排列、可滑动）&lt;br&gt;&lt;div&gt;&lt;br&gt;&lt;/div&gt;&lt;div&gt;&lt;br&gt;&lt;/div&gt;&lt;div&gt;&lt;br&gt;&lt;/div&gt;" style="rounded=0;whiteSpace=wrap;html=1;" parent="1" vertex="1">
          <mxGeometry x="1" y="1020" width="160" height="240" as="geometry" />
        </mxCell>
        <mxCell id="XkUp8fBl9SVcWvUChdZI-119" value="更多" style="text;html=1;align=center;verticalAlign=middle;whiteSpace=wrap;rounded=0;fillColor=#dae8fc;strokeColor=#6c8ebf;" parent="1" vertex="1">
          <mxGeometry x="121" y="1020" width="40" height="20" as="geometry" />
        </mxCell>
        <mxCell id="XkUp8fBl9SVcWvUChdZI-120" value="team_card_small" style="rounded=1;whiteSpace=wrap;html=1;fillColor=#dae8fc;strokeColor=#6c8ebf;" parent="1" vertex="1">
          <mxGeometry x="21" y="1177.5" width="120" height="25" as="geometry" />
        </mxCell>
        <mxCell id="XkUp8fBl9SVcWvUChdZI-121" value="C02&lt;br&gt;team_edit" style="shape=process;whiteSpace=wrap;html=1;backgroundOutline=1;fillColor=#f8cecc;strokeColor=#b85450;" parent="1" vertex="1">
          <mxGeometry x="201" y="1160" width="160" height="60" as="geometry" />
        </mxCell>
        <mxCell id="XkUp8fBl9SVcWvUChdZI-122" value="" style="endArrow=classic;html=1;rounded=0;exitX=1;exitY=0.5;exitDx=0;exitDy=0;entryX=0;entryY=0.5;entryDx=0;entryDy=0;" parent="1" source="XkUp8fBl9SVcWvUChdZI-120" target="XkUp8fBl9SVcWvUChdZI-121" edge="1">
          <mxGeometry width="50" height="50" relative="1" as="geometry">
            <mxPoint x="231" y="1320" as="sourcePoint" />
            <mxPoint x="281" y="1270" as="targetPoint" />
          </mxGeometry>
        </mxCell>
        <mxCell id="XkUp8fBl9SVcWvUChdZI-123" value="管理的友谊赛&lt;br style=&quot;border-color: var(--border-color);&quot;&gt;（横向排列、可滑动）&lt;br&gt;&lt;div&gt;&lt;br/&gt;&lt;/div&gt;" style="rounded=0;whiteSpace=wrap;html=1;" parent="1" vertex="1">
          <mxGeometry y="1260" width="160" height="200" as="geometry" />
        </mxCell>
        <mxCell id="XkUp8fBl9SVcWvUChdZI-124" style="edgeStyle=orthogonalEdgeStyle;rounded=0;orthogonalLoop=1;jettySize=auto;html=1;" parent="1" source="XkUp8fBl9SVcWvUChdZI-125" target="XkUp8fBl9SVcWvUChdZI-128" edge="1">
          <mxGeometry relative="1" as="geometry" />
        </mxCell>
        <mxCell id="XkUp8fBl9SVcWvUChdZI-125" value="更多" style="text;html=1;align=center;verticalAlign=middle;whiteSpace=wrap;rounded=0;fillColor=#dae8fc;strokeColor=#6c8ebf;" parent="1" vertex="1">
          <mxGeometry x="120" y="1260" width="40" height="20" as="geometry" />
        </mxCell>
        <mxCell id="XkUp8fBl9SVcWvUChdZI-137" style="edgeStyle=orthogonalEdgeStyle;rounded=0;orthogonalLoop=1;jettySize=auto;html=1;" parent="1" source="XkUp8fBl9SVcWvUChdZI-127" target="XkUp8fBl9SVcWvUChdZI-132" edge="1">
          <mxGeometry relative="1" as="geometry" />
        </mxCell>
        <mxCell id="XkUp8fBl9SVcWvUChdZI-127" value="match_card_small" style="rounded=1;whiteSpace=wrap;html=1;fillColor=#dae8fc;strokeColor=#6c8ebf;" parent="1" vertex="1">
          <mxGeometry x="25" y="1417.5" width="120" height="25" as="geometry" />
        </mxCell>
        <mxCell id="XkUp8fBl9SVcWvUChdZI-128" value="C09&lt;br&gt;matches" style="shape=process;whiteSpace=wrap;html=1;backgroundOutline=1;fillColor=#f8cecc;strokeColor=#b85450;" parent="1" vertex="1">
          <mxGeometry x="200" y="1240" width="160" height="60" as="geometry" />
        </mxCell>
        <mxCell id="XkUp8fBl9SVcWvUChdZI-129" value="" style="rounded=0;whiteSpace=wrap;html=1;" parent="1" vertex="1">
          <mxGeometry x="200" y="1300" width="160" height="80" as="geometry" />
        </mxCell>
        <mxCell id="XkUp8fBl9SVcWvUChdZI-130" style="edgeStyle=orthogonalEdgeStyle;rounded=0;orthogonalLoop=1;jettySize=auto;html=1;" parent="1" source="XkUp8fBl9SVcWvUChdZI-131" target="XkUp8fBl9SVcWvUChdZI-132" edge="1">
          <mxGeometry relative="1" as="geometry" />
        </mxCell>
        <mxCell id="XkUp8fBl9SVcWvUChdZI-131" value="match_card_big" style="rounded=1;whiteSpace=wrap;html=1;fillColor=#dae8fc;strokeColor=#6c8ebf;" parent="1" vertex="1">
          <mxGeometry x="220" y="1347.5" width="120" height="25" as="geometry" />
        </mxCell>
        <mxCell id="XkUp8fBl9SVcWvUChdZI-132" value="C03&lt;br&gt;match_edit" style="shape=process;whiteSpace=wrap;html=1;backgroundOutline=1;fillColor=#f8cecc;strokeColor=#b85450;" parent="1" vertex="1">
          <mxGeometry x="200" y="1400" width="160" height="60" as="geometry" />
        </mxCell>
        <mxCell id="XkUp8fBl9SVcWvUChdZI-133" value="管理的赛事&lt;br style=&quot;border-color: var(--border-color);&quot;&gt;（纵向排列）&lt;br&gt;&lt;div&gt;&lt;br&gt;&lt;/div&gt;&lt;div&gt;&lt;br&gt;&lt;/div&gt;&lt;div&gt;&lt;br&gt;&lt;/div&gt;&lt;div&gt;&lt;br&gt;&lt;/div&gt;&lt;div&gt;&lt;br&gt;&lt;/div&gt;&lt;div&gt;&lt;br&gt;&lt;/div&gt;" style="rounded=0;whiteSpace=wrap;html=1;" parent="1" vertex="1">
          <mxGeometry y="1457.5" width="160" height="202.5" as="geometry" />
        </mxCell>
        <mxCell id="XkUp8fBl9SVcWvUChdZI-134" style="edgeStyle=orthogonalEdgeStyle;rounded=0;orthogonalLoop=1;jettySize=auto;html=1;" parent="1" source="XkUp8fBl9SVcWvUChdZI-135" target="XkUp8fBl9SVcWvUChdZI-136" edge="1">
          <mxGeometry relative="1" as="geometry" />
        </mxCell>
        <mxCell id="XkUp8fBl9SVcWvUChdZI-135" value="event_card_big" style="rounded=1;whiteSpace=wrap;html=1;fillColor=#dae8fc;strokeColor=#6c8ebf;" parent="1" vertex="1">
          <mxGeometry x="25" y="1557.5" width="120" height="25" as="geometry" />
        </mxCell>
        <mxCell id="XkUp8fBl9SVcWvUChdZI-136" value="C04&lt;br&gt;event_edit" style="shape=process;whiteSpace=wrap;html=1;backgroundOutline=1;fillColor=#f8cecc;strokeColor=#b85450;" parent="1" vertex="1">
          <mxGeometry x="200" y="1540" width="160" height="60" as="geometry" />
        </mxCell>
        <mxCell id="XkUp8fBl9SVcWvUChdZI-138" value="" style="group" parent="1" vertex="1" connectable="0">
          <mxGeometry y="1660" width="160" height="40" as="geometry" />
        </mxCell>
        <mxCell id="w51F5SMFu8FCbX86xvPS-19" value="首页" style="rounded=0;whiteSpace=wrap;html=1;" parent="XkUp8fBl9SVcWvUChdZI-138" vertex="1">
          <mxGeometry width="40" height="40" as="geometry" />
        </mxCell>
        <mxCell id="w51F5SMFu8FCbX86xvPS-20" value="球员" style="rounded=0;whiteSpace=wrap;html=1;" parent="XkUp8fBl9SVcWvUChdZI-138" vertex="1">
          <mxGeometry x="40" width="40" height="40" as="geometry" />
        </mxCell>
        <mxCell id="w51F5SMFu8FCbX86xvPS-21" value="管理" style="rounded=0;whiteSpace=wrap;html=1;fillColor=#ffe6cc;strokeColor=#d79b00;" parent="XkUp8fBl9SVcWvUChdZI-138" vertex="1">
          <mxGeometry x="80" width="40" height="40" as="geometry" />
        </mxCell>
        <mxCell id="w51F5SMFu8FCbX86xvPS-22" value="我的" style="rounded=0;whiteSpace=wrap;html=1;" parent="XkUp8fBl9SVcWvUChdZI-138" vertex="1">
          <mxGeometry x="120" width="40" height="40" as="geometry" />
        </mxCell>
        <mxCell id="XkUp8fBl9SVcWvUChdZI-139" value="new team" style="rounded=1;whiteSpace=wrap;html=1;fillColor=#dae8fc;strokeColor=#6c8ebf;" parent="1" vertex="1">
          <mxGeometry x="219" y="1070" width="120" height="25" as="geometry" />
        </mxCell>
        <mxCell id="XkUp8fBl9SVcWvUChdZI-142" style="edgeStyle=orthogonalEdgeStyle;rounded=0;orthogonalLoop=1;jettySize=auto;html=1;" parent="1" source="XkUp8fBl9SVcWvUChdZI-139" target="XkUp8fBl9SVcWvUChdZI-140" edge="1">
          <mxGeometry relative="1" as="geometry">
            <mxPoint x="401" y="1160" as="targetPoint" />
          </mxGeometry>
        </mxCell>
        <mxCell id="XkUp8fBl9SVcWvUChdZI-140" value="C05&lt;br&gt;team_new" style="shape=process;whiteSpace=wrap;html=1;backgroundOutline=1;fillColor=#f8cecc;strokeColor=#b85450;" parent="1" vertex="1">
          <mxGeometry x="400" y="1052.5" width="160" height="60" as="geometry" />
        </mxCell>
        <mxCell id="XkUp8fBl9SVcWvUChdZI-144" style="edgeStyle=orthogonalEdgeStyle;rounded=0;orthogonalLoop=1;jettySize=auto;html=1;" parent="1" source="XkUp8fBl9SVcWvUChdZI-143" target="XkUp8fBl9SVcWvUChdZI-145" edge="1">
          <mxGeometry relative="1" as="geometry">
            <mxPoint x="421" y="1322.4999999999995" as="targetPoint" />
          </mxGeometry>
        </mxCell>
        <mxCell id="XkUp8fBl9SVcWvUChdZI-143" value="new match (友谊赛)" style="rounded=1;whiteSpace=wrap;html=1;fillColor=#dae8fc;strokeColor=#6c8ebf;" parent="1" vertex="1">
          <mxGeometry x="219" y="1310" width="120" height="25" as="geometry" />
        </mxCell>
        <mxCell id="XkUp8fBl9SVcWvUChdZI-145" value="C06&lt;br&gt;match_new" style="shape=process;whiteSpace=wrap;html=1;backgroundOutline=1;fillColor=#f8cecc;strokeColor=#b85450;" parent="1" vertex="1">
          <mxGeometry x="400" y="1292.5" width="160" height="60" as="geometry" />
        </mxCell>
        <mxCell id="XkUp8fBl9SVcWvUChdZI-146" value="C07&lt;br&gt;event_new" style="shape=process;whiteSpace=wrap;html=1;backgroundOutline=1;fillColor=#f8cecc;strokeColor=#b85450;" parent="1" vertex="1">
          <mxGeometry x="414" y="1592.5" width="160" height="60" as="geometry" />
        </mxCell>
        <mxCell id="XkUp8fBl9SVcWvUChdZI-148" style="edgeStyle=orthogonalEdgeStyle;rounded=0;orthogonalLoop=1;jettySize=auto;html=1;" parent="1" source="XkUp8fBl9SVcWvUChdZI-147" target="XkUp8fBl9SVcWvUChdZI-146" edge="1">
          <mxGeometry relative="1" as="geometry" />
        </mxCell>
        <mxCell id="XkUp8fBl9SVcWvUChdZI-147" value="new match (友谊赛)" style="rounded=1;whiteSpace=wrap;html=1;fillColor=#dae8fc;strokeColor=#6c8ebf;" parent="1" vertex="1">
          <mxGeometry x="25" y="1610" width="120" height="25" as="geometry" />
        </mxCell>
        <mxCell id="XkUp8fBl9SVcWvUChdZI-149" value="" style="shape=curlyBracket;whiteSpace=wrap;html=1;rounded=1;flipH=1;labelPosition=right;verticalLabelPosition=middle;align=left;verticalAlign=middle;" parent="1" vertex="1">
          <mxGeometry x="827" y="-840" width="20" height="230" as="geometry" />
        </mxCell>
        <mxCell id="XkUp8fBl9SVcWvUChdZI-150" value="" style="shape=curlyBracket;whiteSpace=wrap;html=1;rounded=1;flipH=1;labelPosition=right;verticalLabelPosition=middle;align=left;verticalAlign=middle;" parent="1" vertex="1">
          <mxGeometry x="827" y="-590" width="20" height="230" as="geometry" />
        </mxCell>
        <mxCell id="XkUp8fBl9SVcWvUChdZI-151" value="假设传入一个item的id，&lt;br&gt;就可以通过http请求获取该item的数据" style="text;html=1;align=center;verticalAlign=middle;resizable=0;points=[];autosize=1;strokeColor=none;fillColor=none;" parent="1" vertex="1">
          <mxGeometry x="850" y="-745" width="220" height="40" as="geometry" />
        </mxCell>
        <mxCell id="XkUp8fBl9SVcWvUChdZI-152" value="假设传入一系列item的id，&lt;br&gt;就可以通过http请求获取这些item的数据" style="text;html=1;align=center;verticalAlign=middle;resizable=0;points=[];autosize=1;strokeColor=none;fillColor=none;" parent="1" vertex="1">
          <mxGeometry x="850" y="-495" width="230" height="40" as="geometry" />
        </mxCell>
        <mxCell id="XkUp8fBl9SVcWvUChdZI-153" value="D01 我的&lt;br&gt;mine" style="shape=process;whiteSpace=wrap;html=1;backgroundOutline=1;fillColor=#f8cecc;strokeColor=#b85450;" parent="1" vertex="1">
          <mxGeometry x="1" y="1740" width="160" height="60" as="geometry" />
        </mxCell>
        <mxCell id="E_zChNZTgRhNoGyRf9_D-2" value="" style="endArrow=none;html=1;rounded=0;entryX=1;entryY=0;entryDx=0;entryDy=0;exitX=0;exitY=0;exitDx=0;exitDy=0;strokeWidth=4;fillColor=#a20025;strokeColor=#6F0000;" parent="1" source="XkUp8fBl9SVcWvUChdZI-50" target="XkUp8fBl9SVcWvUChdZI-49" edge="1">
          <mxGeometry width="50" height="50" relative="1" as="geometry">
            <mxPoint x="540" y="-450" as="sourcePoint" />
            <mxPoint x="590" y="-500" as="targetPoint" />
          </mxGeometry>
        </mxCell>
        <mxCell id="E_zChNZTgRhNoGyRf9_D-3" value="" style="endArrow=none;html=1;rounded=0;entryX=1;entryY=1;entryDx=0;entryDy=0;exitX=0;exitY=0;exitDx=0;exitDy=0;fillColor=#a20025;strokeColor=#6F0000;strokeWidth=3;" parent="1" source="XkUp8fBl9SVcWvUChdZI-49" target="XkUp8fBl9SVcWvUChdZI-49" edge="1">
          <mxGeometry width="50" height="50" relative="1" as="geometry">
            <mxPoint x="649" y="-470" as="sourcePoint" />
            <mxPoint x="810" y="-530" as="targetPoint" />
          </mxGeometry>
        </mxCell>
        <mxCell id="njqZF4OYOwPLG8LmHhrL-1" value="Pub09 直播和录播&lt;br&gt;&lt;div&gt;live&lt;/div&gt;" style="shape=process;whiteSpace=wrap;html=1;backgroundOutline=1;fillColor=#fff2cc;strokeColor=#d6b656;" parent="1" vertex="1">
          <mxGeometry x="639" y="-320" width="161" height="60" as="geometry" />
        </mxCell>
        <mxCell id="njqZF4OYOwPLG8LmHhrL-2" value="Pub10 新闻页面&lt;br&gt;&lt;div&gt;news&lt;/div&gt;" style="shape=process;whiteSpace=wrap;html=1;backgroundOutline=1;fillColor=#fff2cc;strokeColor=#d6b656;" parent="1" vertex="1">
          <mxGeometry x="639" y="-260" width="161" height="60" as="geometry" />
        </mxCell>
        <mxCell id="PexYSGEethEXAsyTlB1D-1" value="C10&lt;br&gt;event_teams" style="shape=process;whiteSpace=wrap;html=1;backgroundOutline=1;fillColor=#f8cecc;strokeColor=#b85450;" parent="1" vertex="1">
          <mxGeometry x="414" y="1440" width="160" height="60" as="geometry" />
        </mxCell>
        <mxCell id="PexYSGEethEXAsyTlB1D-2" value="C11&lt;br&gt;event_matches" style="shape=process;whiteSpace=wrap;html=1;backgroundOutline=1;fillColor=#f8cecc;strokeColor=#b85450;" parent="1" vertex="1">
          <mxGeometry x="414" y="1524.5" width="160" height="60" as="geometry" />
        </mxCell>
        <mxCell id="PexYSGEethEXAsyTlB1D-3" value="" style="endArrow=classic;html=1;rounded=0;exitX=0.5;exitY=0;exitDx=0;exitDy=0;entryX=0;entryY=0.5;entryDx=0;entryDy=0;" parent="1" source="XkUp8fBl9SVcWvUChdZI-136" target="PexYSGEethEXAsyTlB1D-1" edge="1">
          <mxGeometry width="50" height="50" relative="1" as="geometry">
            <mxPoint x="610" y="1350" as="sourcePoint" />
            <mxPoint x="660" y="1300" as="targetPoint" />
            <Array as="points">
              <mxPoint x="280" y="1470" />
            </Array>
          </mxGeometry>
        </mxCell>
        <mxCell id="PexYSGEethEXAsyTlB1D-4" value="" style="endArrow=classic;html=1;rounded=0;exitX=1;exitY=0.25;exitDx=0;exitDy=0;entryX=0;entryY=0.5;entryDx=0;entryDy=0;" parent="1" source="XkUp8fBl9SVcWvUChdZI-136" target="PexYSGEethEXAsyTlB1D-2" edge="1">
          <mxGeometry width="50" height="50" relative="1" as="geometry">
            <mxPoint x="610" y="1350" as="sourcePoint" />
            <mxPoint x="660" y="1300" as="targetPoint" />
          </mxGeometry>
        </mxCell>
        <mxCell id="CNtyiY0GuJpVYOLWiYQl-1" value="A02 搜索&lt;br&gt;search" style="shape=process;whiteSpace=wrap;html=1;backgroundOutline=1;fillColor=#f8cecc;strokeColor=#b85450;" parent="1" vertex="1">
          <mxGeometry x="-200" y="-520" width="160" height="60" as="geometry" />
        </mxCell>
      </root>
    </mxGraphModel>
  </diagram>
</mxfile>
